<svg width="20" height="20" viewBox="0 0 20 20" fill="none" xmlns="http://www.w3.org/2000/svg">
<g clip-path="url(#clip0_1457_6055)">
<path d="M2.29883 0.602527H17.5363V1.55878H16.5863V2.50878H17.5363V4.41503H18.4926V18.7025H19.4426V3.46503H18.4926V0.602527H19.4426V-0.347473H2.29883V0.602527Z" fill="#737373"/>
<path d="M4.20508 18.7035V4.416H9.91758V3.466H2.29883V4.416H3.25508V18.7035H2.29883V19.6535H18.4926L18.4926 18.7025L4.20508 18.7035Z" fill="#737373"/>
<path d="M15.6396 6.31932H14.6834V3.46307H13.7334V2.50682H14.6834V1.55682H9.9209V2.50682H10.8771V3.46307H11.8271V12.9818H12.7771V12.0318H13.7334V11.0818H14.6834V12.0318H15.6396V12.9818H16.5896V3.46307H15.6396V6.31932Z" fill="#737373"/>
<path d="M6.04417 16.3015L6.98393 16.1624L7.12302 17.1022L8.06278 16.9631L8.20278 17.9091L9.14873 17.769L9.00873 16.8231L9.94849 16.684L9.8094 15.7443L10.7492 15.6052L10.6092 14.6592L11.5551 14.5192L11.2769 12.6397L10.331 12.7797L10.191 11.8337L8.31146 12.1119L8.45146 13.0579L7.50551 13.1979L7.36551 12.2519L5.48598 12.5301L5.62599 13.476L4.68004 13.6161L4.95822 15.4956L5.90416 15.3556L6.04417 16.3015Z" fill="#737373"/>
<path d="M15.6379 2.50897H14.6816V3.46522H15.6379V2.50897Z" fill="#737373"/>
<path d="M8.96836 1.55682H3.25586V2.50682H8.96836V1.55682Z" fill="#737373"/>
<path d="M2.30156 17.7482H1.35156V18.7045H2.30156V17.7482Z" fill="#737373"/>
<path d="M2.30156 0.604675H1.35156V1.56093H2.30156V0.604675Z" fill="#737373"/>
<path d="M1.35078 3.46307H2.30078V2.50682H1.35078V1.55682H0.394531V17.7443H1.35078V3.46307Z" fill="#737373"/>
</g>
<defs>
<clipPath id="clip0_1457_6055">
<rect width="20" height="20" fill="white"/>
</clipPath>
</defs>
</svg>