<svg width="20" height="20" viewBox="0 0 20 20" fill="none" xmlns="http://www.w3.org/2000/svg">
<g clip-path="url(#clip0_1457_6043)">
<path d="M20.3178 8.03889H19.3615V12.8014H20.3178V8.03889Z" fill="#737373"/>
<path d="M18.4109 2.3244V0.418152H17.4609V1.36815H16.5047V2.3244H15.5547V5.18065H18.4109V4.23065H19.3609V3.2744H20.3172V2.3244H18.4109Z" fill="#737373"/>
<path d="M19.3669 12.7974H18.4169V14.7037H19.3669V12.7974Z" fill="#737373"/>
<path d="M19.3669 6.13193H18.4169V8.03818H19.3669V6.13193Z" fill="#737373"/>
<path d="M18.4152 14.7044H17.4652V16.6106H18.4152V14.7044Z" fill="#737373"/>
<path d="M17.4626 16.6149H16.5064V17.5649H17.4626V16.6149Z" fill="#737373"/>
<path d="M16.503 17.563H14.603V18.513H16.503V17.563Z" fill="#737373"/>
<path d="M15.553 5.18378H14.603V6.13378H15.553V5.18378Z" fill="#737373"/>
<path d="M14.6075 6.13193H13.6513V7.08818H14.6075V6.13193Z" fill="#737373"/>
<path d="M14.6058 18.5147H12.6996V19.471H14.6058V18.5147Z" fill="#737373"/>
<path d="M13.6496 8.99415H12.6996V11.8504H13.6496V8.99415Z" fill="#737373"/>
<path d="M13.6496 7.08719H12.6996V8.03719H13.6496V7.08719Z" fill="#737373"/>
<path d="M14.6058 1.36631H12.6996V2.32256H14.6058V1.36631Z" fill="#737373"/>
<path d="M12.7041 11.8493H11.7479V12.7993H12.7041V11.8493Z" fill="#737373"/>
<path d="M12.7041 8.03889H11.7479V8.99514H12.7041V8.03889Z" fill="#737373"/>
<path d="M12.7036 19.47H7.94105V20.42H12.7036V19.47Z" fill="#737373"/>
<path d="M11.7462 8.99415H10.7962V9.94415H11.7462V8.99415Z" fill="#737373"/>
<path d="M11.749 12.7974H8.89276V13.7474H11.749V12.7974Z" fill="#737373"/>
<path d="M10.7945 9.9423H9.84446V10.8923H10.7945V9.9423Z" fill="#737373"/>
<path d="M11.749 7.08719H8.89276V8.03719H11.749V7.08719Z" fill="#737373"/>
<path d="M12.7036 0.418152H7.94105V1.36815H12.7036V0.418152Z" fill="#737373"/>
<path d="M8.89105 11.8493H7.94105V12.7993H8.89105V11.8493Z" fill="#737373"/>
<path d="M8.89105 8.03889H7.94105V8.99514H8.89105V8.03889Z" fill="#737373"/>
<path d="M7.94389 18.5147H6.03764V19.471H7.94389V18.5147Z" fill="#737373"/>
<path d="M7.93849 8.99415H6.98224V11.8504H7.93849V8.99415Z" fill="#737373"/>
<path d="M7.94389 1.36631H6.03764V2.32256H7.94389V1.36631Z" fill="#737373"/>
<path d="M6.03338 17.563H4.12713V18.513H6.03338V17.563Z" fill="#737373"/>
<path d="M6.03338 2.32156H4.12713V3.27156H6.03338V2.32156Z" fill="#737373"/>
<path d="M5.08168 8.03576H6.03168V6.12952H7.93793V5.17952H13.6504V4.22952H12.7004V3.27327H7.93793V4.22952H6.03168V5.17952H5.08168V6.12952H4.12543V8.03576H3.17543V12.7983H4.12543V14.7045H5.08168V15.6545H6.03168V16.6108H7.93793V17.5608H12.7004V16.6108H14.6067V15.6545H15.5567V14.7045H16.5067V12.7983H17.4629V8.03576H16.5067V7.08576H15.5567V12.7983H14.6067V14.7045H13.6504V15.6545H7.93793V14.7045H6.03168V12.7983H5.08168V8.03576Z" fill="#737373"/>
<path d="M4.12543 16.6149H3.17543V17.5649H4.12543V16.6149Z" fill="#737373"/>
<path d="M4.12543 3.27327H3.17543V4.22952H4.12543V3.27327Z" fill="#737373"/>
<path d="M3.17372 14.7044H2.22372V16.6106H3.17372V14.7044Z" fill="#737373"/>
<path d="M3.17372 4.23562H2.22372V6.13562H3.17372V4.23562Z" fill="#737373"/>
<path d="M2.22827 12.7974H1.27202V14.7037H2.22827V12.7974Z" fill="#737373"/>
<path d="M2.22827 6.13193H1.27202V8.03818H2.22827V6.13193Z" fill="#737373"/>
<path d="M1.27031 8.03889H0.320312V12.8014H1.27031V8.03889Z" fill="#737373"/>
</g>
<defs>
<clipPath id="clip0_1457_6043">
<rect width="20" height="20" fill="white"/>
</clipPath>
</defs>
</svg>