<svg width="28" height="29" viewBox="0 0 28 29" fill="none" xmlns="http://www.w3.org/2000/svg">
<path d="M24.4911 12.0364L24.4911 10.8697H23.3244L23.3244 8.53638H24.4911L24.4911 6.20304H23.3244L23.3244 5.03638H22.1577L22.1577 3.86971H19.8244L19.8244 5.03638H17.491L17.491 3.86971H16.3244L16.3244 1.53638H11.6577L11.6577 3.86971H10.491L10.491 5.03638H8.15772L8.15772 3.86971H5.82438L5.82438 5.03638H4.65772L4.65772 6.20304H3.49105L3.49105 8.53638H4.65772L4.65772 10.8697H3.49105L3.49105 12.0364H1.15771L1.15771 16.703H3.49105L3.49105 17.8697H4.65772L4.65772 20.203H3.49105L3.49105 22.5364H4.65772L4.65772 23.703H5.82438L5.82438 24.8697H8.15772L8.15772 23.703H10.491L10.491 24.8697H11.6577L11.6577 27.203H16.3244L16.3244 24.8697H17.491L17.491 23.703H19.8244L19.8244 24.8697H22.1577L22.1577 23.703H23.3244L23.3244 22.5364H24.4911L24.4911 20.203H23.3244L23.3244 17.8697H24.4911L24.4911 16.703H26.8244L26.8244 12.0364H24.4911ZM11.6577 12.0364L11.6577 10.8697H16.3244L16.3244 12.0364H17.491L17.491 16.703H16.3244L16.3244 17.8697H11.6577L11.6577 16.703H10.491L10.491 12.0364H11.6577Z" fill="#D4D4D4" style="fill:#D4D4D4;fill:color(display-p3 0.8314 0.8314 0.8314);fill-opacity:1;"/>
</svg>
